<svg id="Layer_1" enable-background="new 0 0 512 512" height="512" viewBox="0 0 512 512" width="512" xmlns="http://www.w3.org/2000/svg"><g><path d="m418.805 355.14h-8.2c-3.72 0-7.31-.64-10.68-1.8-14.66-5.09-25.3-20.18-25.3-36.33 0 19.87-16.11 38.13-35.98 38.13h-168.37c-19.88 0-35.98-18.26-35.98-38.13 0 19.87-16.11 38.13-35.98 38.13h-6.11c-3.28 0-5.87-2.8-5.6-6.08l17.12-209.22c6.15-75.16 66.19-133.86 140.28-139.41 3.8-.29 7.63-.43 11.5-.43 39.64 0 75.97 15.21 103.2 40.29 27.22 25.09 45.34 60.05 48.58 99.55l17.12 209.22c.27 3.28-2.32 6.08-5.6 6.08z" fill="#555760"/><path d="m424.405 349.06c.27 3.28-2.32 6.08-5.6 6.08h-8.2c-3.72 0-7.31-.64-10.68-1.8 1.03-1.11 1.62-2.63 1.48-4.28l-17.12-209.22c-3.24-39.5-21.36-74.46-48.58-99.55-24.57-22.63-56.56-37.23-91.7-39.86 3.8-.29 7.63-.43 11.5-.43 39.64 0 75.97 15.21 103.2 40.29 27.22 25.09 45.34 60.05 48.58 99.55z" fill="#36383f"/><path d="m419.77 395.3-81.99-19.9-13.67-3.32-137.16.05-94.72 23.17c-30.04 5.81-51.73 32.09-51.73 62.67v48.15c0 3.25 2.63 5.88 5.87 5.88h419.26c3.24 0 5.87-2.63 5.87-5.88v-48.15c0-30.58-21.69-56.86-51.73-62.67z" fill="#ff455c"/><path d="m324.11 372.08c-4.6 33.77-33.55 59.79-68.59 59.79-35.01 0-63.96-25.99-68.57-59.74l32.09-7.85h72.93z" fill="#eef6ff"/><path d="m471.5 457.97v48.15c0 3.25-2.63 5.88-5.87 5.88h-29.89c3.24 0 5.87-2.63 5.87-5.88v-48.15c0-30.58-27.67-53.39-51.73-62.67l-52.1-19.9 81.99 19.9c30.04 5.81 51.73 32.09 51.73 62.67z" fill="#e51c5f"/><path d="m289.79 355.34c.46 3.27 1.17 6.32 2.18 8.94 0 20.14-16.33 36.47-36.47 36.47s-36.46-16.33-36.46-36.47c1.04-2.7 1.77-5.88 2.24-9.26 1.6-11.65.12-25.82-2.24-32.23h72.93c-2.39 6.47-3.87 20.85-2.18 32.55z" fill="#ffd3c0"/><path d="m289.79 355.34c-10.15 6.14-21.89 9.45-33.84 9.45h-.29c-12.15 0-24.1-3.42-34.38-9.77 1.6-11.65.12-25.82-2.24-32.23h72.93c-2.39 6.47-3.87 20.85-2.18 32.55z" fill="#ffb9a1"/><g fill="#ff9d8d"><path d="m158.55 160.546c-5.286 1.75-10.121 4.739-14.152 8.819-6.762 6.844-10.42 15.911-10.302 25.528.239 19.451 16.269 35.275 35.734 35.275h7.5v-59.608z"/><path d="m354.525 160.546c5.286 1.75 10.121 4.739 14.152 8.819 6.762 6.844 10.42 15.911 10.302 25.528-.239 19.451-16.269 35.275-35.734 35.275h-7.5v-59.608z"/></g><path d="m354.715 227.77-19.69 5.95-79.5 24.05-98.51-30c.9-14.84 1.98-43.38 1.54-67.21l76.86.01c16.3-.67 23.63-9.56 33.63-21.69 3.6-4.37 7.33-8.89 11.77-13.33 2.93-2.93 7.68-2.93 10.61 0 3.46 3.46 6.56 7.12 9.55 10.66 7.97 9.41 19.04 17.89 34.06 21.92 5.88 1.57 12.35 2.46 19.49 2.46-.42 23.48-.32 52.37.19 67.18z" fill="#ffd3c0"/><path d="m354.715 227.77-19.69 5.95c-.26-19.25-.28-55.46.01-75.59 5.88 1.57 12.35 2.46 19.49 2.46-.42 23.48-.32 52.37.19 67.18z" fill="#ffb9a1"/><g fill="#e51c5f"><path d="m400.81 464.2v47.8h-15v-47.8c0-4.14 3.36-7.5 7.5-7.5s7.5 3.36 7.5 7.5z"/><path d="m126.19 464.2v47.8h-15v-47.8c0-4.14 3.36-7.5 7.5-7.5s7.5 3.36 7.5 7.5z"/></g><path d="m355.475 243.33c0 20.73-14.25 44.28-42.4 70.14-4.9 4.5-10.22 9.07-15.96 13.71-11.6 9.42-26.22 14.61-41.16 14.61h-.3c-14.96 0-29.61-5.2-41.23-14.65-38.68-31.27-58.31-59.47-58.31-83.81 0-2.67.11-5.21.32-7.57.17-1.74.37-4.48.58-7.99h197.7c.12 3.48.27 6.19.43 7.86.01.04.01.08.02.12.2 2.48.31 5.04.31 7.58z" fill="#eef6ff"/><g fill="#dae6ef"><path d="m355.165 235.75c.2 2.48.31 5.04.31 7.58 0 20.73-14.25 44.28-42.4 70.14 15.1-20.41 22.72-39.21 22.72-56.14 0-2.54-.09-5.1-.25-7.58-.01-.04-.01-.08-.01-.12-.13-1.67-.25-4.38-.35-7.86-.09-3.32-.17-8.19-.22-14h19.75c.12 3.48.27 6.19.43 7.86.01.04.01.08.02.12z"/><g><path d="m289.085 254.611h-66.384c-4.142 0-7.5 3.357-7.5 7.5s3.358 7.5 7.5 7.5h66.384c4.143 0 7.5-3.357 7.5-7.5s-3.357-7.5-7.5-7.5z"/><path d="m279.299 284.611h-46.384c-4.142 0-7.5 3.357-7.5 7.5s3.358 7.5 7.5 7.5h46.384c4.143 0 7.5-3.357 7.5-7.5s-3.358-7.5-7.5-7.5z"/></g></g></g></svg>